<svg width="150" height="150" viewBox="0 0 167 69" fill="none" xmlns="http://www.w3.org/2000/svg">
                <path id="second-word-logo-path"
                    d="M14.106 39.5172H30.6508V45.5988L23.2723 63.2804H16.5758L23.9543 45.5988H14.106H8.02441V39.5172V33.9575H14.106V39.5172Z"
                    fill="#5806C7" />

                <path id="second-word-logo-path"
                    d="M57.5762 39.5171V45.5987H62.4745L63.1721 46.3014V57.24H61.8648H56.0623V63.3267H64.3812H69.2589V43.7799L64.9909 39.5171H57.5762Z"
                    fill="#5806C7" />

                <path id="second-word-logo-path"
                    d="M56.1087 45.5987V39.5171H32.3352V45.5987H41.6565H46.2913H50.6523L46.2913 49.6858V63.2802H52.3729V45.5987H56.1087Z"
                    fill="#5806C7" />

                <path id="second-word-logo-path" d="M6.0816 41.0879H0V68.8555H6.0816V41.0879Z" fill="#5806C7" />

                <path id="second-word-logo-path"
                    d="M87.7516 39.5171H70.6798V45.5987H85.2301L87.4571 47.8257V63.2802H93.5439V45.3042L87.7516 39.5171Z"
                    fill="#5806C7" />


                <path
                    d="M87.6379 14.5708H70.6436V20.3062H71.5374H75.3662L71.2533 24.1556V36.9595H76.9835V20.3062H85.2662L87.6482 22.6882V31.2706H80.0114V37.0008H89.9372H93.3785V20.3114L87.6379 14.5708Z"
                    fill="#F6540B" />
                <path
                    d="M63.8076 22.3988V36.9595H69.5378V20.0272L64.0866 14.5708H50.053V20.3062H61.7149L63.8076 22.3988Z"
                    fill="#F6540B" />
                <path id="second-word-logo-path" d="M77.0868 51.0552H71.0052V63.2804H77.0868V51.0552Z" fill="#5806C7" />

                <path
                    d="M23.7219 20.3062H27.6798V14.5708H15.0568V20.3062H17.9916H22.0994L17.9916 24.1556V36.9595H23.7219V20.3062Z"
                    fill="#F6540B" />

                <path
                    d="M49.0505 31.2603V20.3114L43.3099 14.5708H28.9869V20.3062H40.9383L43.3203 22.6882V28.8886L40.9383 31.2706H28.9869V37.0008H43.3099L49.0505 31.2603Z"
                    fill="#F6540B" />


                <path id="second-word-logo-path" d="M0 39.2692H1.7413L3.47741 33.9575H0.713052L0 39.2692Z"
                    fill="#5806C7" />

                <path id="second-word-logo-path" d="M2.77466 39.2641H4.51594L7.06328 33.9575H4.28342L2.77466 39.2641Z"
                    fill="#FF5454" />

                <path id="first-letter-logo-path"
                    d="M128.545 0L118.139 10.3289V0L98.4266 14.9069V68.3184L118.108 48.5287L137.887 67.7655H166.265V0H128.55H128.545ZM148.149 48.4408H118.144V17.6092H148.149V48.4408Z"
                    fill="#5806C7" />
            </svg>
