<svg width="90" height="18" viewBox="0 0 197 18" fill="none" xmlns="http://www.w3.org/2000/svg">
<circle cx="25.8605" cy="9.07354" r="8.57354" fill="#C135C9"/>
<path d="M-1.48686e-06 9.00383C-6.65689e-07 4.3073 3.80729 0.500001 8.50383 0.500001L17.2865 0.500003L17.2865 8.86443C17.2865 13.638 13.3465 17.5077 8.57297 17.5077C3.87643 17.5077 -2.30803e-06 13.7004 -1.48686e-06 9.00383Z" fill="#3B38CE"/>
<path d="M106.567 15.2469C105.809 15.2469 104.961 15.1643 104.022 14.9991C103.098 14.8221 102.371 14.6274 101.841 14.415V12.7514C103.552 13.4003 105.06 13.7248 106.362 13.7248C107.438 13.7248 108.255 13.4298 108.816 12.8399C109.376 12.25 109.657 11.3828 109.657 10.2383V3.24753H111.974V10.5215C111.974 11.4772 111.754 12.3149 111.315 13.0346C110.876 13.7425 110.247 14.2912 109.429 14.6805C108.611 15.0581 107.657 15.2469 106.567 15.2469Z" fill="white"/>
<path d="M128.507 15.0522H126.144L124.622 11.9196H117.397L115.852 15.0522H113.512L119.601 3.24753H122.418L128.507 15.0522ZM121.009 4.5218L118.078 10.4861H123.917L121.009 4.5218Z" fill="white"/>
<path d="M133.429 15.0522H131.089V3.24753H137.995C139.707 3.24753 141.025 3.5484 141.949 4.15014C142.873 4.74007 143.335 5.57778 143.335 6.66327C143.335 7.55997 142.956 8.30329 142.199 8.89323C141.457 9.48317 140.442 9.84303 139.154 9.97282L143.744 15.0522H141.154L136.769 10.1144H133.429V15.0522ZM137.518 8.78704C138.654 8.78704 139.533 8.60416 140.154 8.2384C140.775 7.86084 141.085 7.3358 141.085 6.66327C141.085 5.30641 139.896 4.62799 137.518 4.62799H133.429V8.78704H137.518Z" fill="white"/>
<path d="M154.482 13.0346L158.867 3.22984H162.593V15.0522H160.343V4.61029L155.413 15.0522H153.436L148.461 4.61029V15.0522H146.302V3.22984H149.983L154.482 13.0346Z" fill="white"/>
<path d="M173.275 3.03516C174.714 3.03516 176.024 3.30063 177.205 3.83157C178.387 4.36251 179.311 5.09404 179.977 6.02614C180.659 6.94644 181 7.97883 181 9.12331C181 10.2796 180.659 11.3238 179.977 12.2559C179.311 13.188 178.387 13.9195 177.205 14.4504C176.039 14.9814 174.729 15.2469 173.275 15.2469C171.851 15.2469 170.556 14.9814 169.39 14.4504C168.239 13.9195 167.33 13.188 166.663 12.2559C166.012 11.3238 165.686 10.2796 165.686 9.12331C165.686 7.97883 166.02 6.94644 166.686 6.02614C167.353 5.09404 168.261 4.36251 169.412 3.83157C170.564 3.30063 171.851 3.03516 173.275 3.03516ZM173.275 4.55719C172.29 4.55719 171.397 4.75777 170.594 5.15893C169.806 5.56009 169.178 6.10873 168.708 6.80485C168.254 7.50098 168.027 8.2738 168.027 9.12331C168.027 9.98461 168.254 10.7692 168.708 11.4772C169.178 12.1733 169.806 12.7219 170.594 13.1231C171.397 13.5242 172.29 13.7248 173.275 13.7248C174.29 13.7248 175.199 13.5242 176.001 13.1231C176.819 12.7219 177.463 12.1733 177.933 11.4772C178.402 10.7692 178.637 9.98461 178.637 9.12331C178.637 8.2738 178.402 7.50098 177.933 6.80485C177.463 6.10873 176.819 5.56009 176.001 5.15893C175.183 4.75777 174.275 4.55719 173.275 4.55719Z" fill="white"/>
<path d="M194.728 12.3975V3.24753H197V15.0522H194.705L186.367 5.37131V15.0522H184.095V3.24753H186.799L194.728 12.3975Z" fill="white"/>
<path d="M38.7367 2.77051H51.588V5.99993H42.6297V7.41556H49.2434V10.4238H42.6297V11.9943H51.588V15.2458H38.7367V2.77051Z" fill="white"/>
<path d="M60.5004 2.77051C62.8597 2.77051 64.6735 3.30874 65.9417 4.38522C67.2099 5.46169 67.844 7.00267 67.844 9.00815C67.844 10.9989 67.2099 12.5399 65.9417 13.6311C64.6735 14.7076 62.8597 15.2458 60.5004 15.2458H53.5549V2.77051H60.5004ZM60.5004 12.0164C61.5916 12.0164 62.4321 11.7583 63.022 11.2422C63.6118 10.7261 63.9067 9.9814 63.9067 9.00815C63.9067 8.0349 63.6118 7.29022 63.022 6.7741C62.4321 6.25798 61.5842 5.99993 60.4782 5.99993H57.4479V12.0164H60.5004Z" fill="white"/>
<path d="M69.8852 2.77051H82.7365V5.99993H73.7782V7.41556H80.3918V10.4238H73.7782V11.9943H82.7365V15.2458H69.8852V2.77051Z" fill="white"/>
<path d="M99.7224 2.77051V15.2458H96.1169L88.5742 7.37132V15.2458H84.7034V2.77051H88.7291L95.8515 10.2026V2.77051H99.7224Z" fill="white"/>
</svg>
